<?xml version="1.0" encoding="UTF-8" standalone="no"?>
<!-- Created with Inkscape (http://www.inkscape.org/) -->

<svg
   version="1.1"
   id="svg3334"
   width="800"
   height="800"
   viewBox="0 0 800 800"
   sodipodi:docname="cloud-data-publicdomainvectors.org.svg"
   inkscape:version="1.2 (dc2aedaf03, 2022-05-15)"
   xmlns:inkscape="http://www.inkscape.org/namespaces/inkscape"
   xmlns:sodipodi="http://sodipodi.sourceforge.net/DTD/sodipodi-0.dtd"
   xmlns="http://www.w3.org/2000/svg"
   xmlns:svg="http://www.w3.org/2000/svg">
  <defs
     id="defs3338">
    <clipPath
       clipPathUnits="userSpaceOnUse"
       id="clipPath3350">
      <path
         d="M 0,600 H 600 V 0 H 0 Z"
         id="path3348" />
    </clipPath>
  </defs>
  <sodipodi:namedview
     id="namedview3336"
     pagecolor="#ffffff"
     bordercolor="#000000"
     borderopacity="0.25"
     inkscape:showpageshadow="2"
     inkscape:pageopacity="0.0"
     inkscape:pagecheckerboard="0"
     inkscape:deskcolor="#d1d1d1"
     showgrid="false"
     inkscape:zoom="1.04625"
     inkscape:cx="400"
     inkscape:cy="400.4779"
     inkscape:window-width="1920"
     inkscape:window-height="1017"
     inkscape:window-x="-8"
     inkscape:window-y="-8"
     inkscape:window-maximized="1"
     inkscape:current-layer="g3342">
    <inkscape:page
       x="0"
       y="0"
       id="page3340"
       width="800"
       height="800" />
  </sodipodi:namedview>
  <g
     id="g3342"
     inkscape:groupmode="layer"
     inkscape:label="Page 1"
     transform="matrix(1.3333333,0,0,-1.3333333,0,800)">
    <g
       id="g3344">
      <g
         id="g3346"
         clip-path="url(#clipPath3350)">
        <g
           id="g3352"
           transform="translate(395.917,448.6367)">
          <path
             d="m 0,0 h 40.858 c 19.119,0 36.463,-7.787 49.025,-20.348 12.561,-12.56 20.347,-29.911 20.347,-49.025 v -45.346 c 0,-4.021 -1.645,-7.677 -4.29,-10.326 l -0.044,-0.044 c -2.644,-2.623 -6.287,-4.256 -10.289,-4.256 H 83.488 c -4.021,0 -7.675,1.647 -10.324,4.291 l -0.044,0.043 c -2.625,2.645 -4.256,6.288 -4.256,10.292 v 45.346 c 0,7.699 -3.154,14.704 -8.228,19.777 -5.077,5.076 -12.078,8.231 -19.778,8.231 H 0 v -11.011 c 0,-2.879 -0.95,-5.409 -2.489,-7.415 l -0.046,-0.056 c -1.148,-1.476 -2.623,-2.662 -4.265,-3.471 l -0.085,-0.04 c -1.657,-0.798 -3.483,-1.236 -5.335,-1.236 -2.522,0 -5.107,0.798 -7.39,2.553 l -38.709,29.773 c -1.021,0.787 -1.92,1.696 -2.685,2.689 -2.018,2.61 -3.025,5.76 -3.025,8.894 0,3.126 1.005,6.273 3.012,8.888 0.753,0.986 1.658,1.897 2.698,2.694 l 38.697,29.764 c 2.295,1.763 4.88,2.562 7.402,2.562 1.878,0 3.737,-0.452 5.411,-1.275 1.673,-0.823 3.16,-2.021 4.311,-3.519 C -0.952,16.419 0,13.881 0,11.006 Z m -227.403,-286.554 h -40.858 c -19.113,0 -36.465,7.787 -49.026,20.349 -12.56,12.563 -20.346,29.906 -20.346,49.026 v 45.347 c 0,4.02 1.644,7.675 4.289,10.324 l 0.044,0.044 c 2.645,2.624 6.285,4.255 10.29,4.255 h 12.117 c 4.021,0 7.678,-1.645 10.326,-4.29 l 0.044,-0.044 c 2.624,-2.644 4.255,-6.285 4.255,-10.289 v -45.347 c 0,-7.701 3.154,-14.702 8.229,-19.779 5.074,-5.072 12.079,-8.228 19.778,-8.228 h 40.858 v 11.011 c 0,2.881 0.951,5.407 2.489,7.412 l 0.046,0.057 c 1.148,1.476 2.62,2.664 4.265,3.473 l 0.085,0.039 c 1.657,0.797 3.483,1.234 5.333,1.234 2.525,0 5.109,-0.797 7.393,-2.553 l 38.709,-29.772 c 1.019,-0.786 1.918,-1.696 2.685,-2.689 2.015,-2.611 3.024,-5.759 3.024,-8.894 0,-3.126 -1.005,-6.272 -3.013,-8.888 -0.752,-0.985 -1.657,-1.895 -2.696,-2.695 l -38.698,-29.764 c -2.295,-1.764 -4.879,-2.561 -7.404,-2.561 -1.877,0 -3.734,0.453 -5.411,1.274 -1.672,0.823 -3.16,2.027 -4.309,3.521 -1.545,2.009 -2.498,4.546 -2.498,7.422 z m -81.166,346.899 h 190.647 c 8.105,0 15.469,-3.311 20.811,-8.653 5.34,-5.33 8.653,-12.699 8.653,-20.812 V -81.8 c 0,-8.109 -3.313,-15.482 -8.649,-20.819 -5.335,-5.335 -12.707,-8.648 -20.815,-8.648 h -92.51 V -127.8 h 26.749 c 2.974,0 5.675,-1.212 7.629,-3.165 1.953,-1.955 3.167,-4.656 3.167,-7.632 0,-2.976 -1.214,-5.678 -3.167,-7.631 -1.954,-1.953 -4.655,-3.169 -7.629,-3.169 h -79.375 c -2.966,0 -5.666,1.216 -7.62,3.169 -1.963,1.953 -3.177,4.659 -3.177,7.627 0,2.98 1.214,5.681 3.169,7.636 1.954,1.953 4.654,3.165 7.628,3.165 h 4.572 v 16.533 h -50.083 c -8.112,0 -15.48,3.313 -20.815,8.648 -5.338,5.337 -8.649,12.71 -8.649,20.819 V 30.88 c 0,8.113 3.311,15.482 8.649,20.817 5.335,5.337 12.703,8.648 20.815,8.648 m 267.231,-285.389 c 3.77,3.378 8.08,6.158 12.782,8.19 4.56,1.965 9.503,3.237 14.69,3.668 4.428,14.16 13.224,26.395 24.801,35.122 11.749,8.85 26.371,14.104 42.207,14.104 19.387,0 36.94,-7.861 49.646,-20.562 12.701,-12.703 20.563,-30.261 20.563,-49.645 0,-1.659 -0.064,-3.345 -0.184,-5.037 -0.079,-1.106 -0.187,-2.206 -0.317,-3.308 5.715,-3.082 10.54,-7.607 13.981,-13.078 3.646,-5.788 5.756,-12.637 5.756,-19.967 0,-10.357 -4.205,-19.74 -10.994,-26.531 l -0.048,-0.05 c -6.791,-6.766 -16.156,-10.955 -26.496,-10.955 H 37.586 c -0.312,-5.405 -2.609,-10.284 -6.176,-13.921 l -0.14,-0.148 c -3.921,-3.921 -9.343,-6.349 -15.331,-6.349 h -119.854 c -7.993,0 -15.232,3.243 -20.469,8.479 -5.237,5.247 -8.479,12.484 -8.479,20.469 0,5.645 1.627,10.928 4.437,15.391 2.581,4.103 6.176,7.514 10.428,9.887 l -0.197,2.132 c -0.092,1.302 -0.143,2.584 -0.143,3.844 0,14.803 6.003,28.214 15.705,37.916 9.702,9.703 23.111,15.706 37.916,15.706 8.378,0 16.312,-1.927 23.379,-5.357"
             style="fill:#3a629f;fill-opacity:1;fill-rule:evenodd;stroke:none"
             id="path3354" />
        </g>
        <g
           id="g3356"
           transform="translate(277.9951,504.1152)">
          <path
             d="m 0,0 h -190.647 c -6.769,0 -12.917,-2.764 -17.375,-7.222 -4.458,-4.458 -7.222,-10.606 -7.222,-17.376 v -112.68 c 0,-6.77 2.764,-12.92 7.222,-17.378 4.458,-4.458 10.606,-7.223 17.375,-7.223 h 52.453 0.063 43.188 0.063 H 0 c 6.767,0 12.916,2.765 17.375,7.223 4.458,4.458 7.221,10.608 7.221,17.378 l -0.001,112.68 c 0,6.77 -2.763,12.918 -7.22,17.376 C 12.927,-2.761 6.775,0 0,0"
             style="fill:#e8e8e7;fill-opacity:1;fill-rule:evenodd;stroke:none"
             id="path3358" />
        </g>
        <g
           id="g3360"
           transform="translate(219.1328,504.1152)">
          <path
             d="m 0,0 h -131.785 c -6.769,0 -12.917,-2.764 -17.375,-7.222 -4.458,-4.458 -7.222,-10.606 -7.222,-17.376 v -112.68 c 0,-6.77 2.764,-12.92 7.222,-17.378 4.458,-4.458 10.606,-7.223 17.375,-7.223 h 40.701 z"
             style="fill:#f0f0f0;fill-opacity:1;fill-rule:evenodd;stroke:none"
             id="path3362" />
        </g>
        <g
           id="g3364"
           transform="translate(183.1152,315.9727)">
          <path
             d="m 0,0 h -0.063 -43.188 -0.063 -6.942 c -1.631,0 -3.115,-0.67 -4.188,-1.742 -1.073,-1.072 -1.743,-2.557 -1.743,-4.191 0,-1.631 0.67,-3.117 1.743,-4.189 1.068,-1.073 2.554,-1.743 4.188,-1.743 h 79.375 c 1.63,0 3.114,0.67 4.189,1.743 1.072,1.072 1.741,2.557 1.741,4.185 0,1.638 -0.669,3.123 -1.741,4.195 C 32.233,-0.67 30.749,0 29.119,0 Z"
             style="fill:#e8e8e7;fill-opacity:1;fill-rule:evenodd;stroke:none"
             id="path3366" />
        </g>
        <g
           id="g3368"
           transform="translate(433.2402,140.4111)">
          <path
             d="m 0,0 h 67.726 c 9.026,0 17.196,3.657 23.106,9.562 5.907,5.911 9.563,14.081 9.563,23.107 0,6.398 -1.83,12.357 -4.994,17.384 -3.247,5.157 -7.903,9.351 -13.409,12.027 -1.013,0.407 -1.661,1.471 -1.501,2.599 0.223,1.539 0.392,3.101 0.503,4.682 0.11,1.515 0.167,3.084 0.167,4.698 0,18.044 -7.316,34.383 -19.138,46.205 -11.824,11.819 -28.164,19.137 -46.205,19.137 -14.746,0 -28.351,-4.886 -39.275,-13.12 -11.193,-8.434 -19.596,-20.391 -23.549,-34.216 -0.283,-0.974 -1.156,-1.71 -2.224,-1.758 -5.202,-0.245 -10.169,-1.436 -14.727,-3.407 -3.686,-1.588 -7.103,-3.69 -10.155,-6.206 1.486,-0.908 2.927,-1.884 4.31,-2.928 8.737,-6.585 15.403,-15.791 18.823,-26.446 8.855,-0.839 16.789,-4.875 22.621,-10.93 5.709,-5.924 9.417,-13.805 10.03,-22.536 4.906,-0.691 9.284,-3.025 12.557,-6.422 C -2.807,8.352 -0.738,4.399 0,0"
             style="fill:#a6ccee;fill-opacity:1;fill-rule:evenodd;stroke:none"
             id="path3370" />
        </g>
        <g
           id="g3372"
           transform="translate(449.8486,279.8057)">
          <path
             d="m 0,0 -0.79,0.007 c -14.746,0 -28.352,-4.887 -39.275,-13.12 -11.194,-8.435 -19.596,-20.392 -23.549,-34.216 -0.283,-0.975 -1.156,-1.71 -2.225,-1.759 -5.201,-0.245 -10.169,-1.435 -14.726,-3.406 -3.687,-1.589 -7.104,-3.691 -10.156,-6.206 1.487,-0.908 2.927,-1.885 4.311,-2.929 8.736,-6.585 15.402,-15.791 18.822,-26.445 5.525,-0.524 10.688,-2.292 15.208,-5.018 z"
             style="fill:#beddf4;fill-opacity:1;fill-rule:evenodd;stroke:none"
             id="path3374" />
        </g>
        <g
           id="g3376"
           transform="translate(353.9219,218.4805)">
          <path
             d="m 0,0 c -7.653,3.94 -14.065,5.601 -22.722,5.601 -13.463,0 -25.654,-5.458 -34.474,-14.279 -8.821,-8.82 -14.281,-21.011 -14.281,-34.474 0,-1.213 0.042,-2.382 0.124,-3.503 0.084,-1.182 0.209,-2.354 0.376,-3.498 0.162,-1.134 -0.491,-2.197 -1.51,-2.601 -4.039,-1.975 -7.449,-5.058 -9.836,-8.845 -2.329,-3.702 -3.678,-8.095 -3.678,-12.808 0,-6.656 2.692,-12.68 7.044,-17.03 4.365,-4.354 10.391,-7.053 17.037,-7.053 H 57.935 c 4.64,0 8.848,1.883 11.891,4.926 l 0.118,0.109 c 2.968,3.025 4.805,7.189 4.805,11.782 0,4.348 -1.666,8.52 -4.7,11.672 -2.922,3.032 -6.979,4.975 -11.48,5.137 -1.327,0.048 -2.371,1.151 -2.34,2.473 -0.103,8.282 -3.421,15.797 -8.768,21.349 -5.379,5.582 -12.811,9.181 -21.079,9.566 -1.068,0.048 -1.942,0.785 -2.22,1.763 C 21.209,-19.4 14.939,-10.478 6.587,-4.184 4.514,-2.622 2.314,-1.222 0,0"
             style="fill:#d7ebf9;fill-opacity:1;fill-rule:evenodd;stroke:none"
             id="path3378" />
        </g>
        <g
           id="g3380"
           transform="translate(353.9219,218.4805)">
          <path
             d="m 0,0 c -7.653,3.94 -14.065,5.601 -22.722,5.601 -13.463,0 -25.654,-5.458 -34.474,-14.279 -8.821,-8.82 -14.281,-21.011 -14.281,-34.474 0,-1.213 0.042,-2.382 0.124,-3.503 0.084,-1.182 0.209,-2.354 0.376,-3.498 0.162,-1.134 -0.491,-2.197 -1.51,-2.601 -4.039,-1.975 -7.449,-5.058 -9.836,-8.845 -2.329,-3.702 -3.678,-8.095 -3.678,-12.808 0,-6.656 2.692,-12.68 7.044,-17.03 4.365,-4.354 10.391,-7.053 17.037,-7.053 h 22.379 L 11.264,-8.191 C 9.79,-6.762 8.23,-5.42 6.587,-4.184 4.514,-2.622 2.314,-1.222 0,0"
             style="fill:#e6f3fc;fill-opacity:1;fill-rule:evenodd;stroke:none"
             id="path3382" />
        </g>
        <g
           id="g3384"
           transform="translate(127.6563,166.9521)">
          <path
             d="m 0,0 h 43.29 c 1.344,0 2.433,-1.09 2.433,-2.435 v -13.439 c 0,-1.753 0.562,-3.276 1.472,-4.459 0.697,-0.906 1.597,-1.633 2.602,-2.128 1.003,-0.495 2.131,-0.764 3.279,-0.764 1.512,0 3.067,0.484 4.448,1.545 l 38.69,29.753 c 0.694,0.537 1.303,1.146 1.803,1.8 1.337,1.734 2.003,3.836 2.003,5.943 0,2.109 -0.665,4.208 -1.994,5.936 -0.49,0.652 -1.102,1.261 -1.812,1.808 l -38.69,29.755 c -1.381,1.059 -2.936,1.545 -4.448,1.545 -1.116,0 -2.206,-0.257 -3.189,-0.722 L 49.804,54.095 C 48.811,53.606 47.919,52.893 47.232,52.017 L 47.205,51.979 C 46.29,50.784 45.723,49.261 45.723,47.51 V 34.063 c 0,-1.341 -1.089,-2.432 -2.433,-2.432 H 0 c -9.042,0 -17.265,3.702 -23.218,9.657 -5.957,5.954 -9.656,14.175 -9.656,23.218 v 45.347 c 0,2.664 -1.078,5.083 -2.811,6.847 l -0.043,0.044 c -1.777,1.769 -4.22,2.863 -6.904,2.863 h -12.117 c -2.665,0 -5.086,-1.077 -6.85,-2.808 l -0.044,-0.044 c -1.768,-1.776 -2.864,-4.219 -2.864,-6.902 V 64.506 c 0,-17.774 7.242,-33.903 18.922,-45.587 C -33.906,7.239 -17.775,0 0,0"
             style="fill:#f03e51;fill-opacity:1;fill-rule:evenodd;stroke:none"
             id="path3386" />
        </g>
        <g
           id="g3388"
           transform="translate(127.6563,166.9521)">
          <path
             d="m 0,0 h 42.811 l 25.384,45.11 -10.671,8.205 c -1.381,1.059 -2.936,1.545 -4.448,1.545 -1.116,0 -2.206,-0.257 -3.189,-0.722 L 49.804,54.095 C 48.811,53.606 47.919,52.893 47.232,52.017 L 47.205,51.979 C 46.29,50.784 45.723,49.261 45.723,47.51 V 34.063 c 0,-1.341 -1.089,-2.432 -2.433,-2.432 H 0 c -9.042,0 -17.265,3.702 -23.218,9.657 -5.957,5.954 -9.656,14.175 -9.656,23.218 v 45.347 c 0,2.664 -1.078,5.083 -2.811,6.847 l -0.043,0.044 c -1.777,1.769 -4.22,2.863 -6.904,2.863 h -12.117 c -2.665,0 -5.086,-1.077 -6.85,-2.808 l -0.044,-0.044 c -1.768,-1.776 -2.864,-4.219 -2.864,-6.902 V 64.506 c 0,-17.774 7.242,-33.903 18.922,-45.587 C -33.906,7.239 -17.775,0 0,0"
             style="fill:#f36077;fill-opacity:1;fill-rule:evenodd;stroke:none"
             id="path3390" />
        </g>
        <g
           id="g3392"
           transform="translate(436.7754,443.77)">
          <path
             d="m 0,0 h -43.291 c -1.344,0 -2.435,1.09 -2.435,2.433 v 13.44 c 0,1.752 -0.559,3.278 -1.47,4.46 -0.695,0.902 -1.596,1.632 -2.601,2.125 -1.003,0.496 -2.13,0.766 -3.281,0.766 -1.511,0 -3.066,-0.485 -4.446,-1.546 l -38.69,-29.754 c -0.694,-0.535 -1.303,-1.143 -1.804,-1.799 -1.339,-1.737 -2.003,-3.839 -2.003,-5.944 0,-2.107 0.667,-4.21 1.993,-5.934 0.492,-0.652 1.102,-1.26 1.814,-1.808 l 38.69,-29.754 c 1.38,-1.061 2.935,-1.546 4.446,-1.546 1.118,0 2.206,0.255 3.191,0.721 l 0.081,0.044 c 0.995,0.489 1.887,1.201 2.573,2.077 l 0.028,0.039 c 0.915,1.192 1.479,2.718 1.479,4.471 v 13.443 c 0,1.344 1.091,2.434 2.435,2.434 H 0 c 9.041,0 17.262,-3.699 23.218,-9.656 5.953,-5.955 9.654,-14.176 9.654,-23.218 v -45.346 c 0,-2.662 1.08,-5.086 2.812,-6.851 l 0.043,-0.043 c 1.776,-1.769 4.216,-2.864 6.903,-2.864 h 12.119 c 2.662,0 5.085,1.077 6.85,2.812 l 0.044,0.044 c 1.768,1.775 2.863,4.217 2.863,6.902 v 45.346 c 0,17.775 -7.242,33.906 -18.921,45.585 C 33.901,-7.242 17.771,0 0,0"
             style="fill:#bade38;fill-opacity:1;fill-rule:evenodd;stroke:none"
             id="path3394" />
        </g>
        <g
           id="g3396"
           transform="translate(436.7754,443.77)">
          <path
             d="m 0,0 h -43.291 c -1.344,0 -2.435,1.09 -2.435,2.433 v 13.44 c 0,1.752 -0.559,3.278 -1.47,4.46 -0.695,0.902 -1.596,1.632 -2.601,2.125 -1.003,0.496 -2.13,0.766 -3.281,0.766 -1.511,0 -3.066,-0.485 -4.446,-1.546 l -38.69,-29.754 c -0.694,-0.535 -1.303,-1.143 -1.804,-1.799 -1.339,-1.737 -2.003,-3.839 -2.003,-5.944 0,-2.107 0.667,-4.21 1.993,-5.934 0.492,-0.652 1.102,-1.26 1.814,-1.808 l 38.69,-29.754 c 1.38,-1.061 2.935,-1.546 4.446,-1.546 1.118,0 2.206,0.255 3.191,0.721 l 0.081,0.044 c 0.995,0.489 1.887,1.201 2.573,2.077 l 0.028,0.039 c 0.915,1.192 1.479,2.718 1.479,4.471 v 13.443 c 0,1.344 1.091,2.434 2.435,2.434 H -10.06 L 7.493,-0.434 C 5.033,-0.148 2.535,0 0,0"
             style="fill:#d1e85a;fill-opacity:1;fill-rule:evenodd;stroke:none"
             id="path3398" />
        </g>
        <g
           id="g3400"
           transform="translate(87.3481,495.2832)">
          <path
             d="m 0,0 h 190.647 c 4.332,0 8.275,-1.78 11.13,-4.637 2.854,-2.853 4.634,-6.798 4.634,-11.129 l 0.001,-112.68 c 0,-4.331 -1.781,-8.275 -4.635,-11.13 -2.855,-2.857 -6.798,-4.635 -11.13,-4.635 H 0 c -4.331,0 -8.275,1.778 -11.132,4.635 -2.853,2.855 -4.633,6.799 -4.633,11.13 v 112.68 c 0,4.307 1.765,8.234 4.6,11.089 l 0.033,0.034 C -8.265,-1.78 -4.324,0 0,0"
             style="fill:#3a629f;fill-opacity:1;fill-rule:evenodd;stroke:none"
             id="path3402" />
        </g>
        <g
           id="g3404"
           transform="translate(277.9951,490.4155)">
          <path
             d="m 0,0 h -190.647 c -2.987,0 -5.716,-1.226 -7.69,-3.197 l -0.054,-0.054 c -1.945,-1.973 -3.153,-4.681 -3.153,-7.647 v -112.681 c 0,-2.988 1.232,-5.715 3.207,-7.689 1.978,-1.978 4.703,-3.209 7.69,-3.209 H 0 c 2.986,0 5.712,1.231 7.69,3.209 1.973,1.974 3.207,4.701 3.207,7.689 v 112.681 c 0,2.987 -1.234,5.715 -3.207,7.689 C 5.712,-1.23 2.986,0 0,0"
             style="fill:#689dd9;fill-opacity:1;fill-rule:evenodd;stroke:none"
             id="path3406" />
        </g>
        <g
           id="g3408"
           transform="translate(211.4219,490.4155)">
          <path
             d="m 0,0 h -124.074 c -2.987,0 -5.716,-1.226 -7.69,-3.197 l -0.054,-0.054 c -1.945,-1.973 -3.153,-4.681 -3.153,-7.647 v -112.681 c 0,-2.988 1.232,-5.715 3.207,-7.689 1.978,-1.978 4.703,-3.209 7.69,-3.209 h 48.408 z"
             style="fill:#80afe2;fill-opacity:1;fill-rule:evenodd;stroke:none"
             id="path3410" />
        </g>
        <path
           d="m 180.619,337.37 h -38.322 v -16.533 h 38.322 z"
           style="fill:#e8e8e7;fill-opacity:1;fill-rule:evenodd;stroke:none"
           id="path3412" />
        <path
           d="m 142.296,329.103 h 38.321 v 8.267 h -38.321 z"
           style="fill:#d0d0ce;fill-opacity:1;fill-rule:evenodd;stroke:none"
           id="path3414" />
      </g>
    </g>
  </g>
</svg>
