<?xml version="1.0" standalone="no"?>
<!-- Created with Inkscape (http://www.inkscape.org/) -->
<svg zoomAndPan="magnify" xmlns:rdf="http://www.w3.org/1999/02/22-rdf-syntax-ns#"
    xmlns:xlink="http://www.w3.org/1999/xlink" xmlns:svg="http://www.w3.org/2000/svg" baseProfile="full"
    contentStyleType="text/css" id="svg2" sodipodi:docname="Crystal_Clear_app_Internet_Connection_Tools.svg" version="1.1"
    width="480" xmlns:sodipodi="http://sodipodi.sourceforge.net/DTD/sodipodi-0.dtd" xmlns:inkscape="http://www.inkscape.org/namespaces/inkscape"
    xmlns:dc="http://purl.org/dc/elements/1.1/" xmlns:cc="http://creativecommons.org/ns#" preserveAspectRatio="xMidYMid meet"
    inkscape:version="0.48.0 r9654" height="480" xmlns="http://www.w3.org/2000/svg">
    <sodipodi:namedview objecttolerance="10" bordercolor="#666666" inkscape:window-height="710" inkscape:zoom="0.55698257"
        id="namedview84" gridtolerance="10" inkscape:current-layer="svg2" inkscape:window-y="32" inkscape:cy="193.05771"
        inkscape:window-x="0" inkscape:cx="214.076" showgrid="false" guidetolerance="10" inkscape:pageopacity="0"
        inkscape:pageshadow="2" inkscape:window-width="1280" inkscape:window-maximized="1" borderopacity="1" pagecolor="#ffffff"/>
    <defs id="defs4">
        <linearGradient id="linearGradient3936" inkscape:collect="always">
            <stop offset="0" style="stop-color:#ffffff;stop-opacity:1;" id="stop3938"/>
            <stop offset="1" style="stop-color:#ffffff;stop-opacity:0;" id="stop3940"/>
        </linearGradient>
        <linearGradient id="linearGradient4370" inkscape:collect="always">
            <stop offset="0" style="stop-color:#ffffff;stop-opacity:1;" id="stop4372"/>
            <stop offset="1" style="stop-color:#ffffff;stop-opacity:0;" id="stop4374"/>
        </linearGradient>
        <linearGradient id="linearGradient4279" inkscape:collect="always">
            <stop offset="0" style="stop-color:#ffffff;stop-opacity:1;" id="stop4281"/>
            <stop offset="1" style="stop-color:#ffffff;stop-opacity:0;" id="stop4283"/>
        </linearGradient>
        <linearGradient id="linearGradient4036" inkscape:collect="always">
            <stop offset="0" style="stop-color:#ffffff;stop-opacity:1;" id="stop4038"/>
            <stop offset="1" style="stop-color:#ffffff;stop-opacity:0;" id="stop4040"/>
        </linearGradient>
        <linearGradient id="linearGradient4024">
            <stop offset="0" style="stop-color:#ffffff;stop-opacity:1;" id="stop4026"/>
            <stop style="stop-color:#ffffff;stop-opacity:0.49803922;" offset="0.5" id="stop4034"/>
            <stop offset="1" style="stop-color:#ffffff;stop-opacity:0;" id="stop4028"/>
        </linearGradient>
        <linearGradient id="linearGradient4018">
            <stop style="stop-color:#ffffff;stop-opacity:0.30000001" offset="0" id="stop4020"/>
            <stop style="stop-color:#ffffff;stop-opacity:0" offset="1" id="stop4022"/>
        </linearGradient>
        <linearGradient id="linearGradient3685">
            <stop offset="0" style="stop-color:#ffffff;stop-opacity:0.30000001" id="stop3687"/>
            <stop offset="1" style="stop-color:#ffffff;stop-opacity:0" id="stop3689"/>
        </linearGradient>
        <linearGradient id="linearGradient3673">
            <stop offset="0" style="stop-color:#ffffff;stop-opacity:1" id="stop3675"/>
            <stop offset="1" style="stop-color:#ffffff;stop-opacity:0" id="stop3677"/>
        </linearGradient>
        <linearGradient id="linearGradient3643">
            <stop offset="0" style="stop-color:#584f2e;stop-opacity:1" id="stop3645"/>
            <stop offset="0.09356546" style="stop-color:#dac572;stop-opacity:1" id="stop3661"/>
            <stop offset="0.17861055" style="stop-color:#6e643a;stop-opacity:1" id="stop3659"/>
            <stop offset="0.27010232" style="stop-color:#ceba6c;stop-opacity:1" id="stop3657"/>
            <stop offset="0.35330138" style="stop-color:#5f5632;stop-opacity:1" id="stop3655"/>
            <stop offset="0.42476726" style="stop-color:#baa862;stop-opacity:1" id="stop3653"/>
            <stop offset="0.49925151" style="stop-color:#5d5431;stop-opacity:1" id="stop3651"/>
            <stop offset="1" style="stop-color:#887b47;stop-opacity:1" id="stop3649"/>
        </linearGradient>
        <linearGradient id="linearGradient5178">
            <stop offset="0" style="stop-color:#bddfff;stop-opacity:1" id="stop5188"/>
            <stop offset="0.53756118" style="stop-color:#81d8ff;stop-opacity:1" id="stop5192"/>
            <stop offset="0.5686397" style="stop-color:#ffffff;stop-opacity:1" id="stop5190"/>
            <stop offset="1" style="stop-color:#bddfff;stop-opacity:1" id="stop5182"/>
        </linearGradient>
        <linearGradient id="linearGradient5170">
            <stop offset="0" style="stop-color:#6db4f3;stop-opacity:1" id="stop5172"/>
            <stop offset="1" style="stop-color:#ffffff;stop-opacity:1" id="stop5174"/>
        </linearGradient>
        <linearGradient id="linearGradient5164">
            <stop offset="0" style="stop-color:#ffffff;stop-opacity:1" id="stop5166"/>
            <stop offset="1" style="stop-color:#73bfff;stop-opacity:1" id="stop5168"/>
        </linearGradient>
        <linearGradient id="linearGradient5158">
            <stop offset="0" style="stop-color:#6db4f3;stop-opacity:1" id="stop5160"/>
            <stop offset="1" style="stop-color:#ffffff;stop-opacity:1" id="stop5162"/>
        </linearGradient>
        <linearGradient id="linearGradient5138">
            <stop offset="0" style="stop-color:#6db4f3;stop-opacity:1" id="stop5140"/>
            <stop offset="1" style="stop-color:#ffffff;stop-opacity:1" id="stop5142"/>
        </linearGradient>
        <linearGradient id="linearGradient5130">
            <stop offset="0" style="stop-color:#ffffff;stop-opacity:1" id="stop5132"/>
            <stop offset="1" style="stop-color:#000000;stop-opacity:0" id="stop5134"/>
        </linearGradient>
        <linearGradient id="linearGradient5124">
            <stop offset="0" style="stop-color:#ffffff;stop-opacity:1" id="stop5126"/>
            <stop offset="1" style="stop-color:#000000;stop-opacity:0" id="stop5128"/>
        </linearGradient>
        <linearGradient id="linearGradient5114">
            <stop offset="0" style="stop-color:#ffffff;stop-opacity:1" id="stop5116"/>
            <stop offset="1" style="stop-color:#000000;stop-opacity:0" id="stop5118"/>
        </linearGradient>
        <radialGradient gradientTransform="matrix(-1.4178542,-6.3105109e-8,4.4748796e-8,-1.0054218,1061.6532,1456.8998)"
            id="radialGradient5154" gradientUnits="userSpaceOnUse" r="92.221886" cx="429.06262" fx="429.06262" cy="760.05096"
            fy="760.05096" xlink:href="#linearGradient5164"
           />
        <linearGradient gradientTransform="translate(24.242424,-21.212121)" x1="222.47906" gradientUnits="userSpaceOnUse"
            xlink:href="#linearGradient5178"
            x2="412.95151" y1="760.59167" y2="792.25836" id="linearGradient5184"/>
        <linearGradient gradientTransform="translate(24.242424,-21.212121)" x1="251.16666" gradientUnits="userSpaceOnUse"
            xlink:href="#linearGradient5178"
            x2="295.5" y1="751.7511" y2="680.7511" id="linearGradient5214"/>
        <linearGradient gradientTransform="matrix(0.93646544,0,0,0.93679326,40.528104,26.31067)" x1="242.27779"
            gradientUnits="userSpaceOnUse" xlink:href="#linearGradient3643"
            x2="367.54987" y1="752.12366" y2="766.2511" id="linearGradient3641"/>
        <linearGradient gradientTransform="matrix(0.97422123,0,0,1.0442282,35.258536,-38.609829)" x1="369"
            gradientUnits="userSpaceOnUse" xlink:href="#linearGradient3685"
            x2="369" y1="614.86218" y2="478.36218" id="linearGradient3679"/>
        <linearGradient gradientTransform="translate(24.242424,-21.212121)" x1="370" gradientUnits="userSpaceOnUse"
            xlink:href="#linearGradient3685"
            x2="370" y1="240.36218" y2="450.83347" id="linearGradient3699"/>
        <linearGradient gradientTransform="translate(-139.48725,-363.18818)" inkscape:collect="always" id="linearGradient3077"
            gradientUnits="userSpaceOnUse" x1="370" y1="240.36218" x2="370" y2="450.83347" xlink:href=
            "#linearGradient3685"
           />
        <linearGradient gradientTransform="matrix(0.93646544,0,0,0.93679326,-123.20157,-145.66539)" inkscape:collect="always"
            id="linearGradient3081" gradientUnits="userSpaceOnUse" x1="242.27779" y1="752.12366" x2="367.54987" y2="766.2511"
            xlink:href="#linearGradient3643"
           />
        <linearGradient gradientTransform="translate(-139.48725,-193.18818)" inkscape:collect="always" id="linearGradient3084"
            gradientUnits="userSpaceOnUse" x1="251.16666" y1="751.7511" x2="295.5" y2="680.7511" xlink:href=
            "#linearGradient5178"
           />
        <radialGradient gradientTransform="matrix(-1.4178542,-6.3105109e-8,4.4748796e-8,-1.0054218,897.92353,1284.9237)"
            inkscape:collect="always" id="radialGradient3088" gradientUnits="userSpaceOnUse" r="92.221886" cx="429.06262"
            fx="429.06262" fy="760.05096" cy="760.05096" xlink:href="#linearGradient5164"
           />
        <linearGradient gradientTransform="translate(-139.48725,-193.18818)" inkscape:collect="always" id="linearGradient3091"
            gradientUnits="userSpaceOnUse" x1="222.47906" y1="760.59167" x2="412.95151" y2="792.25836" xlink:href=
            "#linearGradient5178"
           />
        <linearGradient gradientTransform="matrix(0.97422123,0,0,1.0442282,-128.47113,-380.58589)" inkscape:collect="always"
            id="linearGradient3097" gradientUnits="userSpaceOnUse" x1="369" y1="614.86218" x2="369" y2="478.36218"
            xlink:href="#linearGradient3685"
           />
        <linearGradient gradientTransform="matrix(0.97422123,0,0,1.0442282,-117.71355,-204.84152)" inkscape:collect="always"
            id="linearGradient3868" gradientUnits="userSpaceOnUse" x1="369" y1="614.86218" x2="369" y2="478.36218"
            xlink:href="#linearGradient3685"
           />
        <linearGradient gradientTransform="matrix(-0.12477578,0.62894977,-1.344634,-0.08139473,482.7982,5.3850817)"
            inkscape:collect="always" id="linearGradient4032" gradientUnits="userSpaceOnUse" spreadMethod="reflect" x1="84.270332"
            y1="158.15402" x2="398.27032" y2="158.15402" xlink:href="#linearGradient4024"
           />
        <linearGradient x1="149.80469" gradientUnits="userSpaceOnUse" x2="365.625" y1="360.66406" xlink:href=
            "#linearGradient4036"
            y2="360.66406" id="linearGradient4042" inkscape:collect="always"/>
        <filter x="-0.29278594" y="-0.30742526" width="1.5855719" height="1.6148505" id="filter4247" inkscape:collect="always">
            <feGaussianBlur stdDeviation="3.2523829" id="feGaussianBlur4249" inkscape:collect="always"/>
        </filter>
        <filter x="-0.35134313" y="-0.36891031" width="1.7026863" height="1.7378206" id="filter4255" inkscape:collect="always">
            <feGaussianBlur stdDeviation="3.9028595" id="feGaussianBlur4257" inkscape:collect="always"/>
        </filter>
        <filter x="-0.35134313" y="-0.36891031" width="1.7026863" height="1.7378206" id="filter4259" inkscape:collect="always">
            <feGaussianBlur stdDeviation="3.9028595" id="feGaussianBlur4261" inkscape:collect="always"/>
        </filter>
        <filter x="-0.35134313" y="-0.36891031" width="1.7026863" height="1.7378206" id="filter4263" inkscape:collect="always">
            <feGaussianBlur stdDeviation="3.9028595" id="feGaussianBlur4265" inkscape:collect="always"/>
        </filter>
        <filter x="-0.35134313" y="-0.36891031" width="1.7026863" height="1.7378206" id="filter4271" inkscape:collect="always">
            <feGaussianBlur stdDeviation="3.9028595" id="feGaussianBlur4273" inkscape:collect="always"/>
        </filter>
        <linearGradient x1="213.15121" gradientUnits="userSpaceOnUse" x2="242.87742" y1="252.88338" xlink:href=
            "#linearGradient4279"
            y2="252.88338" id="linearGradient4285" inkscape:collect="always"/>
        <linearGradient x1="213.15121" gradientUnits="userSpaceOnUse" x2="242.87743" y1="252.88338" xlink:href=
            "#linearGradient4279-6"
            y2="252.88338" id="linearGradient4285-6" inkscape:collect="always"/>
        <linearGradient id="linearGradient4279-6" inkscape:collect="always">
            <stop offset="0" style="stop-color:#ffffff;stop-opacity:1;" id="stop4281-7"/>
            <stop offset="1" style="stop-color:#ffffff;stop-opacity:0;" id="stop4283-7"/>
        </linearGradient>
        <linearGradient x1="213.27011" gradientUnits="userSpaceOnUse" x2="242.75851" y1="252.88338" xlink:href=
            "#linearGradient4370"
            y2="252.88338" id="linearGradient4376" inkscape:collect="always"/>
        <linearGradient x1="210.78125" gradientUnits="userSpaceOnUse" x2="239.90234" y1="257.83203" xlink:href=
            "#linearGradient3936"
            y2="257.83203" id="linearGradient3942" inkscape:collect="always"/>
        <linearGradient gradientTransform="translate(-102.5,-62.5)" inkscape:collect="always" id="linearGradient4102"
            gradientUnits="userSpaceOnUse" x1="205" y1="69" x2="205" y2="261" xlink:href="#linearGradient4046"
           />
        <radialGradient gradientTransform="translate(-54.75,-62.5)" inkscape:collect="always" id="radialGradient4100"
            gradientUnits="userSpaceOnUse" r="95.5" cx="157.25" fx="157.25" cy="230.00601" fy="230.00601" xlink:href=
            "#linearGradient4609"
           />
        <radialGradient gradientTransform="matrix(1,0,0,0.502618,-102.5,43.1937)" inkscape:collect="always" id="radialGradient4097"
            gradientUnits="userSpaceOnUse" r="95.5" cx="205" fx="205" cy="212.5" fy="212.5" xlink:href=
            "#linearGradient7290"
           />
        <linearGradient gradientTransform="translate(-102.5,-62.5)" inkscape:collect="always" id="linearGradient4094"
            gradientUnits="userSpaceOnUse" x1="205" y1="85" x2="205" y2="174.9375" xlink:href="#linearGradient9081"
           />
        <filter id="filter3157" inkscape:collect="always">
            <feGaussianBlur stdDeviation="5" inkscape:collect="always" id="feGaussianBlur3159"/>
        </filter>
        <linearGradient id="linearGradient4609">
            <stop style="stop-color:white;stop-opacity:1" offset="0" id="stop4611"/>
            <stop style="stop-color:red;stop-opacity:1" offset="1" id="stop4613"/>
        </linearGradient>
        <linearGradient id="linearGradient7290">
            <stop style="stop-color:white;stop-opacity:0.71134019" offset="0" id="stop7292"/>
            <stop style="stop-color:white;stop-opacity:0" offset="1" id="stop7294"/>
        </linearGradient>
        <linearGradient id="linearGradient9081">
            <stop style="stop-color:white;stop-opacity:1" offset="0" id="stop9083"/>
            <stop style="stop-color:white;stop-opacity:0" offset="1" id="stop9085"/>
        </linearGradient>
        <linearGradient id="linearGradient4046">
            <stop style="stop-color:#5d0000;stop-opacity:1;" offset="0" id="stop4048"/>
            <stop style="stop-color:red;stop-opacity:1;" offset="1" id="stop4050"/>
        </linearGradient>
    </defs>
    <path d="m 437.41578,241.84211 a 199.25789,199.25789 0 0 1 -398.51578,0 199.25789,199.25789 0 1 1 398.51578,0 z" id="path2830"
        inkscape:connector-curvature="0" style=
        "fill:#183f8e;fill-opacity:1;stroke:#0b1e46;stroke-width:7.80000019;stroke-miterlimit:4;stroke-opacity:1;stroke-dasharray:none"/>
    <path d="M 27.285334 166.17401 C 46.391922 299.13226 60.468666 436.14642 240.06282 439.6928 C 435.97458 402.53427 
        439.22086 291.9328 460.26273 188.6991 C 408.8229 290.87817 341.61176 366.1353 237.58867 378.5533 C 113.95342 
        371.33182 78.79645 259.0426 27.285334 166.17401 z" id="path3663" inkscape:connector-curvature="0" style=
        "fill:url(#linearGradient3868);fill-opacity:1;stroke:none;opacity:0.3"/>
    <path d="m 417.71982,215.9625 c 0,0 -2.63803,13.19016 -4.8992,14.69761 -2.26117,1.50744 -13.94389,13.94388 
        -13.94389,13.94388 l -2.26117,7.53723 1.13059,21.85798 -10.55213,16.20506 -2.63803,15.45133 -7.53724,9.7984 
        -20.72739,0 -13.19016,-7.16037 -6.40665,-13.94388 -3.76862,-9.04469 1.13059,-10.92899 4.52234,-11.30585 
        -6.78351,-16.58191 0,-14.69761 -15.8282,-3.39176 -21.10425,0.37687 -18.84309,-18.46623 -0.37686,-27.13404 
        10.92899,-18.08936 16.95878,-15.07447 29.77207,-1.13059 13.19016,10.55213 31.65639,-1.13058 0,-3.76862 
        -11.68272,-13.56702 -5.27606,0 -2.63803,3.39175 c 0,0 -1.50745,-3.76861 -1.50745,-2.26117 0,1.50745 
        0.75372,4.52234 0.75372,4.52234 l -4.52234,-6.40665 0,4.89921 -3.6708,-3.44062 -6.7188,-12.35393 -3.6845,0.21674 
        -1.95062,2.60083 4.33471,6.7188 6.06859,5.20165 -0.43347,2.16736 -3.03429,-2.16736 -0.86695,1.95062 
        0.21674,2.60083 -2.38409,-0.86694 0.21673,-3.90124 -9.10289,-13.22087 -13.22087,-0.65021 -4.76818,4.55145 
        -2.81756,10.4033 -5.41839,1.30042 -1.08368,2.81756 -11.05351,-3.0343 0,-17.12211 2.3841,-2.38409 c 
        1.81765,-0.88212 5.37275,-0.89641 11.70371,-0.6502 3.94024,-0.32222 2.32657,-6.19836 0,-12.7874 l 
        -2.81756,-1.51715 2.81756,-1.73388 4.33471,0.6502 11.27025,-3.90124 6.28533,-6.93553 6.7188,-8.66943 
        3.68451,0.86695 4.11797,-3.90124 4.06343,-9.24691 c 9.68955,8.27679 20.00533,16.62146 27.49814,24.79876 
        32.11834,32.45403 53.72083,67.45203 51.80744,95.86839 -5.32863,0.34435 -5.25327,3.70738 -8.49669,7.17955 l 
        -12.23575,0.38802 -12.13719,-14.30455 -11.27025,-17.33884 9.7531,20.15641 9.53637,16.90537 15.38822,0 
        -0.59101,3.63483 z" id="path4122" inkscape:connector-curvature="0" style=
        "fill:#e3e6f1;fill-opacity:1;stroke:none;opacity:0.7"/>
    <path d="m 234.4041,253.58443 -2.11534,9.16648 -7.75626,9.8716 -0.70511,13.39717 -15.51251,14.10228 
        -2.82046,11.98694 -13.39717,12.69206 -15.51251,9.87159 -3.52557,15.51251 -2.82045,16.21763 3.52557,13.39717 
        -12.69206,-1.41023 -4.23068,-5.64091 c 0,0 -6.34603,-9.16649 -4.9358,-13.39717 1.41023,-4.23069 
        1.41023,-33.84548 1.41023,-33.84548 l 1.41023,-21.85854 c 0,0 -0.70754,-14.39556 -2.11535,-17.62785 
        -1.06966,-2.45591 -16.8481,-17.1798 -14.95322,-19.07468 l -4.08486,-14.06568 0.70512,-12.69206 7.75625,-9.8716 
        -17.62785,-14.80739 -1.88431,-10.38228 -18.564,-6.54046 -14.8074,-13.39717 -6.34602,-21.85854 1.41022,-27.49945 
        c -4.30241,7.36585 -4.17276,15.61811 -3.52557,23.97388 l -1.76808,1.5133 -1.13059,-9.79841 -1.88431,-9.7984 
        6.78351,-16.20505 c 0,0 20.79061,-19.85867 22.23484,-20.7274 2.50607,-1.50744 1.68473,-6.70752 1.17618,-6.70752 
        l 25.82263,-20.90822 12.57167,14.04872 3.76862,7.9141 c 0,0 4.1461,0.33391 5.65293,0.37686 3.53828,0.10086 
        8.01172,-25.27388 6.40665,-26.00346 l 12.43643,4.52234 12.8133,-1.13058 12.43644,18.46622 -7.50684,14.83284 
        2.9845,0.24163 7.53723,0.37686 -1.13058,8.66782 -9.42155,-4.52234 0,-4.8992 -12.43643,0 0.37686,4.8992 
        8.29096,4.52234 -2.63804,10.55213 -9.04468,-3.39176 -9.04468,7.53724 -7.91409,2.63803 -1.50745,8.29096 
        -4.14548,7.16037 -10.17527,7.53723 -1.50744,5.27607 2.26117,5.65292 -1.50745,1.88431 -3.39176,-0.37686 
        -2.26117,-6.02979 -2.63803,-3.01489 -10.55213,1.13058 -13.56702,5.27607 -3.39175,13.19016 2.26117,3.39175 
        9.42154,1.88431 2.63803,-4.52234 10.92899,-0.37686 -4.14548,6.02979 4.52234,6.78351 5.65293,2.63803 
        -2.63803,5.65292 6.78351,8.29096 10.17526,-4.52234 22.23485,-0.37686 6.02978,9.42154 13.19016,5.27607 
        9.42155,6.78351 9.04468,10.17526 13.56702,3.39176 9.63748,10.86475 z" id="path4091"
        inkscape:connector-curvature="0" style="fill:#e3e6f1;fill-opacity:1;stroke:none;opacity:0.7"/>
    <path d="m 178.03577,194.4814 a 4.14548,3.0148947 0 0 1 -8.29096,0 4.14548,3.0148947 0 1 1 8.29096,0 z" id="path4101"
        inkscape:connector-curvature="0" style="fill:#e3e6f1;fill-opacity:1;fill-rule:nonzero;stroke:none;opacity:0.7"/>
    <path d="m 249.18382 44.882 c 87.93837 14.02128 140.94763 45.54651 132.35384 107.94271 c -24.39998 84.0449 -98.85612 
        81.91478 -167.49954 89.79171 c -109.37107 -21.70485 -112.92585 -61.72622 -115.87179 -101.853 c 7.16339 -75.70085 
        75.3801 -89.55 151.01749 -95.88142 z" id="path3683" inkscape:connector-curvature="0" style=
        "opacity:1;fill:url(#linearGradient4032);fill-opacity:1;stroke:none" inkscape:transform-center-y="56.105886"/>
    <path d="m 199.89376,181.10279 a 0.94215429,1.319016 0 1 1 -0.14323,-0.69912" id="path4106"
        inkscape:connector-curvature="0" style="fill:#e3e6f1;fill-opacity:1;fill-rule:nonzero;stroke:none;opacity:0.7"/>
    <path d="m 160.70013,187.69787 c 2.15158,4.70346 9.09922,7.09931 -5.27606,7.9141 -6.49976,-0.83396 -7.98706,-7.97717 
        -18.08937,-13.19016 9.39282,-2.25218 15.76779,3.04028 23.36543,5.27606 z" id="path4097"
        inkscape:connector-curvature="0" style="fill:#e3e6f1;fill-opacity:1;stroke:none;opacity:0.7"/>
    <path d="m 201.4012,168.85477 a 0.94215429,2.638032 0 1 1 -0.14322,-1.39824" id="path4108"
        inkscape:connector-curvature="0" style="fill:#e3e6f1;fill-opacity:1;fill-rule:nonzero;stroke:none;opacity:0.7"/>
    <path d="m 200.27061,220.10798 a 1.1305852,1.1305852 0 1 1 -0.17188,-0.59925" id="path4110"
        inkscape:connector-curvature="0" style="fill:#e3e6f1;fill-opacity:1;fill-rule:nonzero;stroke:none;opacity:0.7"/>
    <path d="m 195.3714,219.16581 a 0.37686172,0.94215429 0 1 1 -0.0573,-0.49937" id="path4112"
        inkscape:connector-curvature="0" style="fill:#e3e6f1;fill-opacity:1;fill-rule:nonzero;stroke:none;opacity:0.7"/>
    <path d="m 262.82966,221.23856 a 1.8843086,1.8843086 0 1 1 -0.28646,-0.99874" id="path4114"
        inkscape:connector-curvature="0" style="fill:#e3e6f1;fill-opacity:1;fill-rule:nonzero;stroke:none;opacity:0.7"/>
    <path d="m 258.3073,226.51463 a 0.94215429,1.8843086 0 1 1 -0.14323,-0.99875" id="path4116"
        inkscape:connector-curvature="0" style="fill:#e3e6f1;fill-opacity:1;fill-rule:nonzero;stroke:none;opacity:0.7"/>
    <path d="m 256.04615,231.79069 a 0.75372344,1.1305852 0 1 1 -0.11458,-0.59925" id="path4118"
        inkscape:connector-curvature="0" style="fill:#e3e6f1;fill-opacity:1;fill-rule:nonzero;stroke:none;opacity:0.7"/>
    <path d="m 416.58923 267.85373 l -10.55213 9.42155 l -6.02978 16.20505 l 3.76861 8.29096 l 9.04469 -5.27607 l 
        3.39175 -11.30585 l 2.63803 -8.66782 l -2.26117 -8.66782 z" id="path4120" inkscape:connector-curvature="0"
        style="fill:#e3e6f1;fill-opacity:1;stroke:none;opacity:0.7"/>
    <path d="m 314.06104,99.84192 -2.60083,1.08368 -2.60083,1.73388 -3.25103,1.73389 -2.16736,-1.51715 1.30042,-3.68451 
        -2.38409,-5.41838 -0.43347,-4.76819 -0.65021,-3.03429 -2.81756,-1.08368 2.38409,-2.16736 4.98492,0 0,2.60083 
        4.76818,6.7188 3.6845,3.90124 -0.21673,3.90124 z" id="path4124" inkscape:connector-curvature="0" style=
        "fill:#e3e6f1;fill-opacity:1;stroke:none;opacity:0.7"/>
    <path d="m 300.18996,101.14233 0.43347,-3.25103 -0.86694,-3.90124 -2.60083,-0.21673 -4.33471,2.81756 
        -0.43347,3.90124 c 0,0 3.25103,1.51715 4.33471,1.51715 1.08368,0 3.46777,-0.86695 3.46777,-0.86695 z" id="path4126"
        inkscape:connector-curvature="0" style="fill:#e3e6f1;fill-opacity:1;stroke:none;opacity:0.7"/>
    <path d="m 269.65491,48.91545 c 0.001,3.50761 -13.24553,12.13081 -13.24553,12.13081 l -18.85599,5.63512 
        -6.50207,10.40331 c 0,0 -8.45268,1.30041 -9.31962,0.21674 -0.86695,-1.08368 -6.50207,-8.45269 -6.50207,-8.45269 
        0,0 -10.46552,-3.03944 -9.53636,-4.76818 1.67578,-3.11786 -19.91653,-11.10653 -20.7305,-10.45534 
        22.24425,-6.38678 52.84194,-9.80688 84.69214,-4.70977 z" id="path4128" inkscape:connector-curvature="0" style=
        "fill:#e3e6f1;fill-opacity:1;stroke:none;opacity:0.7"/>
    <path d="m 266.37922,81.20266 7.15227,0.21674 2.60083,-2.81756 0.6502,-3.90124 -5.63512,-0.86694 -6.7188,0.86694 
        -3.0343,3.0343 0.21674,0.43347 4.76818,3.03429 z" id="path4130" inkscape:connector-curvature="0" style=
        "fill:#e3e6f1;fill-opacity:1;stroke:none;opacity:0.7"/>
    <path sodipodi:nodetypes="cscsscssscsssc" inkscape:connector-curvature="0" id="path3957" d="m 197.49272,425.24065 c 
        22.48747,-15.69642 11.27745,-17.27867 20.38403,-20.23002 13.91318,-4.50911 43.35225,6.76461 43.35225,6.76461 0,0 
        22.1813,7.16185 33.3236,9.98354 6.09329,1.54307 10.46554,-13.73761 16.74815,-13.54242 11.68148,0.36291 
        22.9682,5.88013 22.9682,5.88013 0,0 -15.10414,4.57739 -18.85157,7.81631 -7.53806,6.51517 -29.6514,10.5094 
        -42.06951,12.75363 -12.4181,2.24424 -25.53685,1.669 -38.152,1.34654 -14.4392,-0.36908 -41.29393,-4.48846 
        -41.29393,-4.48846 0,0 -17.43773,-0.66839 -24.23775,-5.38617 -5.86455,-4.06876 -15.59404,1.55575 
        -15.47862,-12.87574 0.0574,-7.1704 9.93198,3.44129 19.79228,6.32411 11.10693,3.2473 23.51487,5.65394 
        23.51487,5.65394 z" style="opacity:0.7;fill:#e3e6f1;fill-opacity:1;stroke:none"/>
    <ellipse rx="198.83333" ry="196.16666" style="stroke: #0B1E46; stroke-width:5; fill: none;" cx="238.16667" cy="241.83334"/>
</svg>