<?xml version="1.0" encoding="UTF-8" standalone="no"?>
<svg xmlns="http://www.w3.org/2000/svg" xmlns:xlink="http://www.w3.org/1999/xlink" width="128" height="128" viewBox="0 0 128 128">
  <linearGradient id="a">
    <stop offset="0" stop-color="#fff"/>
    <stop offset="1" stop-color="#949494"/>
  </linearGradient>
  <linearGradient id="d" x1="63.999" x2="63.999" y1="116.112" y2="122.558" gradientUnits="userSpaceOnUse" xlink:href="#a"/>
  <linearGradient id="b">
    <stop offset="0" stop-color="#9e9eac"/>
    <stop offset="1" stop-color="#42425b"/>
  </linearGradient>
  <linearGradient id="e" x1="64.001" x2="64.001" y1="124.855" y2="122.795" gradientUnits="userSpaceOnUse" xlink:href="#b"/>
  <linearGradient id="f" x1="63.412" x2="63.412" y1="110.72" y2="125.81" gradientUnits="userSpaceOnUse" xlink:href="#a"/>
  <linearGradient id="g" x1="61.813" x2="70.808" y1="101.138" y2="101.138" gradientUnits="userSpaceOnUse" xlink:href="#a"/>
  <linearGradient id="h" x1="63.412" x2="63.412" y1="127.928" y2="120.972" gradientUnits="userSpaceOnUse" xlink:href="#b"/>
  <linearGradient id="c">
    <stop offset="0" stop-color="#b8bbda"/>
    <stop offset="1" stop-color="#0d2d7d"/>
  </linearGradient>
  <radialGradient id="i" cx="58.883" cy="124.855" r="57.326" gradientUnits="userSpaceOnUse" xlink:href="#c"/>
  <radialGradient id="j" cx="62.807" cy="113.586" r="44.497" gradientTransform="matrix(1 0 0 .9479 0 4.2796)" gradientUnits="userSpaceOnUse" xlink:href="#c"/>
  <radialGradient id="k" cx="63.745" cy="52.605" r="48.38" gradientUnits="userSpaceOnUse">
    <stop offset="0" stop-color="#fff"/>
    <stop offset="1" stop-color="#7783bd"/>
  </radialGradient>
  <linearGradient id="l" x1="64.589" x2="64.589" y1="5.757" y2="57.594" gradientUnits="userSpaceOnUse">
    <stop offset="0" stop-color="#fff"/>
    <stop offset="1" stop-color="#fff" stop-opacity="0"/>
  </linearGradient>
  <path fill="url(#d)" d="m26.953 124.094v-10.021h74.094v10.021z"/>
  <path fill="url(#e)" d="m26.953 113.564c-.282 0-.509.227-.509.508v10.021c0 .279.227.508.509.508h74.094c.283 0 .509-.229.509-.508v-10.021c0-.281-.226-.508-.509-.508zm73.585 1.018v9.004c-.995 0-72.08 0-73.077 0 0-.869 0-8.137 0-9.004z"/>
  <path fill="url(#f)" d="m68.423 111.602v-21.295h-10.02v21.295h-8.954v14.963h27.926v-14.963z"/>
  <path fill="url(#g)" d="m68.32 90.469h-6.124v21.338h6.124z"/>
  <path d="m74.825 111.336h-.618v14.842h.618z" opacity=".4"/>
  <path fill="#fff" d="m75.344 111.336h-.617v14.842h.617z" opacity=".6"/>
  <path d="m51.843 111.336h-.618v14.842h.618z" opacity=".4"/>
  <path fill="#fff" d="m52.362 111.336h-.619v14.842h.619z" opacity=".6"/>
  <path fill="url(#h)" d="m58.403 89.797c-.284 0-.511.229-.511.51v20.789c-.905 0-8.443 0-8.443 0-.281 0-.511.227-.511.506v14.963c0 .279.229.51.511.51h27.926c.283 0 .509-.23.509-.51v-14.963c0-.279-.226-.506-.509-.506 0 0-7.539 0-8.443 0 0-.951 0-20.789 0-20.789 0-.281-.228-.51-.509-.51zm9.512 1.017v20.787c0 .281.228.51.508.51h8.444v13.943c-.962 0-25.947 0-26.909 0 0-.916 0-13.025 0-13.943h8.445c.279 0 .506-.229.506-.51 0 0 0-19.838 0-20.787z"/>
  <path d="m68.379 106.924h-9.499v-13.903h9.499z" opacity=".2"/>
  <path d="m82.966 124.594h-5.428v-10.855h5.428z" opacity=".2"/>
  <path fill="url(#i)" d="m63.998 102.465c28.034 0 50.767-22.842 50.767-50.858 0-27.84-22.732-50.681-50.767-50.681-27.831 0-50.763 22.841-50.763 50.681 0 28.016 22.932 50.858 50.763 50.858z"/>
  <path fill="url(#j)" d="m63.998 100.316c26.847 0 48.627-21.871 48.627-48.705 0-26.664-21.78-48.544-48.627-48.544-26.652 0-48.617 21.88-48.617 48.544 0 26.834 21.965 48.705 48.617 48.705z"/>
  <path fill-rule="evenodd" d="m40.549 51.813c-.405-.388-.134-2.083-.134-2.083s-6.131-3.246-12.8-5.197c-.824-.242-.408-1.95.407-2.597l-.271-1.824c-.136-.911 1.362-5.332 2.855-5.718 1.502-.393-.134 2.601-.134 2.601l-1.497.911s1.769 2.079 2.18 2.079c.408 0 1.09-1.043 1.09-1.043l-1.906-1.298 1.77-.784.11-.68.298-.099 2.93-4.47c2.024-.84 4.516-1.875 4.831-2.029.544-.257 4.355-2.467 5.037-2.985.682-.522 2.18-.388 2.724-.388s1.36-.259 1.498-1.695c.134-1.426.683-1.69 1.088-1.301.41.391-.41 1.041.544 1.301s1.77.916 2.452.26c.496-.475-.168-1.015-.617-1.427h7.56l.819-2.342-1.773-.259-6.537-.654v-.779l-.521.093c.712-3.924 4.912-3.272 1.752-5.547-.198-.138-2.961 4.401-3.669 4.311-1.273-.17-2.927-.183-3.276.235-.466.553 1.045-1.899 2.344-2.645-2.071.616-8.625 2.875-15.55 10.316-6.622 7.114-9.262 16.695-9.262 17.028 0 .65 1.362.915 1.5 1.69.132.779-2.586 3.38-2.586 4.681 0 .598-.644 8.613 1.633 15.208 2.654 7.705 8.327 14.14 8.987 14.562l1.359-.652s-3.13-5.59-3.266-6.111c-.138-.516 3.538-8.056 5.308-7.798 1.77.26 1.364.785 2.453.129 1.092-.646 1.77-5.978 2.995-6.498 1.227-.52 2.586-1.166 2.452-2.467-.135-1.306-4.767-3.641-5.177-4.035zm9.804-36.266c-.203 0-.427.077-.652.211.535-.161.785-.211.652-.211zm13.205 2.597.135-1.951-2.038.131.271 1.82zm6.535-4.555-3.673-1.295.682 2.083zm-13.749 4.814c.411 0 8.578-5.457 7.758-5.588-.815-.129-.953 0-3.13-.261-2.175-.259-4.494 3.119-5.038 3.64s-.359 2.209.41 2.209zm22.198 48.47s-.924.25.129.627c1.053.375 5.272-6.137 5.272-6.137l-3.558 2.253zm25.436-19.922-.692-1.342c-.815-4.63-2.681-10.573-6.685-16.699-6.033-9.217-22.803-14.528-22.803-14.528l-.924 1.125-.522-.876-1.322-.503v1.125l1.188 1.006-.793.375-3.031.252-6.851 3.756.656 3.007-.786.254-.396.622 2.24 3.382.129 1.131-1.843.375v2.252l-1.054.248.13 1.755-8.962 6.272.264 3.503c.659.875 5.802 6.141 5.802 6.141s5.927.249 7.244-.502c1.32-.749.397.75.794 1.125.396.382.526 3.011.92 3.263.397.247 0 1.753.525 2.251.531.501.531 6.517.531 6.517s3.164 5.388 3.164 6.769c0 1.379-.135 1.248 2.37 1.127 2.504-.127 3.025-1.127 3.557-1.504.527-.377.527-1.252 1.059-2.008.527-.75 1.445-3.633 2.633-4.635 1.184-.999 4.349-1.752 4.61-3.509.264-1.755 1.451-3.136 1.451-3.136l5.698-6.074-.165.82-.129 3.13 1.71-.627-.13-3.383-.612-.661.085-.09s-.396-.748-.924-.748c-.525 0-3.689.748-4.213.625-.531-.13-2.771-6.143-3.168-6.392-.393-.252-2.897-4.386-2.897-4.386s5.798 7.015 6.722 9.776c.535 1.602 2.548.11 4.183-1.565l.433 1.062 1.053-.251-.134-1.253h1.188v1.88l-.394 1-.138 1.629 1.055 1.004.531-.876 1.709-1.627 1.977-1.001.531 1.001.264 1.379-.531 1.498-1.053.883-.527 2.253v1.126l-1.184-.753-.133-2.381-1.711.132-.79 2.121 1.185 1.757 2.766.373 2.242-2.13.262-4.131.998-1.327c.646 1.684 1.109 3.452 1.109 5.089 0 1.796.82-1.25.126-6.732zm-33.212-12.774-7.117-.257 3.031-2.501h1.584l2.502 1.75zm8.694-.885v1.134h-3.029l.268.749-1.848.249-.133.63-1.313-.251-2.376-.503.395-.624.396-.756 1.317-1.377.525 1.002 1.979-.124 1.057-1.128 4.078.749zm.264-1.627-1.58.248-.258-1.121 1.973-.252.264-1.127 1.449 1.502zm14.103 25.94 1.058-1.384-1.058-.373-.79 1.003-.924 1.377.791.377zm-6.458 13.026-.924.75.135 1.881h1.182v-1.627l1.059-1.381v-2.877l-.66-.131zm11.069-8.517-.264-2.008h-1.709l-.133 1.505-1.586-.248-.393-1.635-.79-.498-.924 1.128-.92-.252-.264.881 1.053.25v8.14l3.731.91c-.083.146-.151.271-.172.344-.268.879 1.057 1.254 1.973.879.346-.141 1.429-1.246 2.109-2.881.95-2.277 1.779-5.284 1.948-6.344l.423-.921-2.635 1z" clip-rule="evenodd" opacity=".36"/>
  <path fill="url(#k)" d="m47.512 7.518c-.246 0-.514.104-.786.257.647-.191.95-.257.786-.257zm15.981 3.121.159-2.341-2.464.152.328 2.188h1.977zm-27.841 40.402c-.496-.464-.163-2.495-.163-2.495s-7.412-3.897-15.489-6.235c-.997-.294-.492-2.34.494-3.12l-.328-2.188c-.166-1.09 1.647-6.396 3.46-6.862 1.813-.469-.164 3.119-.164 3.119l-1.815 1.095s2.142 2.493 2.64 2.493c.495 0 1.317-1.25 1.317-1.25l-2.308-1.556 2.144-.941.134-.82.358-.11 3.544-5.373c2.452-1.008 5.465-2.249 5.845-2.43.661-.311 5.276-2.959 6.097-3.583.828-.63 2.633-.472 3.292-.472.661 0 1.65-.311 1.814-2.031.168-1.716.824-2.027 1.321-1.555.492.462-.497 1.244.66 1.555 1.152.317 2.136 1.096 2.961.317.604-.575-.203-1.224-.747-1.716h9.147l.993-2.814-2.141-.309-7.913-.777v-.937l-.63.106c.858-4.708 5.944-3.929 2.115-6.655-.233-.17-3.584 5.28-4.434 5.171-1.546-.203-3.545-.216-3.968.281-.561.661 1.261-2.279 2.836-3.173-2.508.741-10.434 3.454-18.817 12.379-8.011 8.535-11.205 20.036-11.205 20.435 0 .779 1.652 1.096 1.817 2.032.161.932-3.13 4.051-3.13 5.613 0 .719-.776 10.335 1.972 18.257 3.217 9.24 10.081 16.961 10.88 17.469l1.643-.779s-3.788-6.709-3.952-7.334c-.164-.621 4.286-9.674 6.424-9.355 2.141.305 1.648.934 2.965.15 1.325-.775 2.142-7.179 3.622-7.797 1.485-.628 3.138-1.409 2.971-2.963-.17-1.56-5.765-4.369-6.262-4.842zm35.749-45.865-4.244-.846.619 1.785zm-16.641 5.771c.501 0 10.382-6.549 9.39-6.704-.984-.155-1.23.494-3.873.186-2.633-.315-5.353 3.244-6.008 3.868-.662.626-.437 2.65.491 2.65zm45.357 47.04 1.278-1.653-1.278-.449-.954 1.202-1.117 1.651.958.456zm5.583 5.418-.32-2.405h-2.071l-.161 1.798-1.917-.293-.474-1.96-.954-.596-1.117 1.35-1.121-.299-.318 1.044 1.276.309v9.77l4.518 1.088c-.108.184-.183.33-.213.42-.318 1.045 1.273 1.5 2.393 1.045.413-.166 1.727-1.488 2.552-3.455 1.147-2.729 2.152-6.335 2.352-7.615l.515-1.101-3.188 1.2zm6.082-18.488-.216-1.321c-.988-5.561-3.263-12.668-8.093-20.04-8.415-12.823-26.823-18.102-26.823-18.102l-1.885 2.016-.635-1.051-1.598-.606v1.355l1.434 1.207-.954.449-3.669.298-8.288 4.514.793 3.608-.953.304-.479.747 2.711 4.058.155 1.353-2.227.456v2.706l-1.274.296.16 2.106-10.849 7.522.319 4.205c.799 1.05 7.019 7.371 7.019 7.371s7.176.298 8.769-.604.479.902.958 1.355c.479.451.635 3.607 1.114 3.909.479.298 0 2.1.635 2.705.639.6.639 7.82.639 7.82s3.829 6.464 3.829 8.118c0 1.656-.156 1.504 2.87 1.355 3.031-.154 3.665-1.355 4.305-1.807.643-.451.643-1.502 1.276-2.406.64-.904 1.755-4.362 3.19-5.561 1.435-1.209 5.259-2.111 5.578-4.211.32-2.109 1.758-3.762 1.758-3.762l6.889-7.294-.193.982-.155 3.758 2.067-.749-.155-4.062-.748-.79.108-.117s-.478-.896-1.117-.896c-.634 0-4.464.896-5.1.749-.643-.151-3.354-7.366-3.832-7.665-.476-.303-3.506-5.265-3.506-5.265s7.016 8.421 8.129 11.728c.652 1.923 3.083.131 5.063-1.879l.518 1.28 1.279-.308-.161-1.497h1.438v2.251l-.479 1.202-.165 1.956 1.279 1.202.638-1.047 2.073-1.959 2.392-1.202.638 1.202.32 1.66-.639 1.798-1.277 1.056-.639 2.707v1.347l-1.435-.9-.159-2.854-2.067.153-.959 2.551 1.433 2.109 3.347.445 2.715-2.554.314-4.956 1.211-1.597c.785 2.02 1.341 4.135 1.341 6.102 0 2.159.988-1.492.151-8.075zm-39.565-15.044-8.611-.303 3.665-3.004h1.911l3.035 2.103zm10.521-1.051v1.351h-3.665l.318.907-2.23.302-.165.75-1.594-.301-2.87-.603.479-.753.479-.905 1.594-1.651.639 1.201 2.391-.146 1.278-1.354 4.94.9zm.319-1.954-1.912.296-.32-1.352 2.389-.3.318-1.351 1.759 1.802zm9.247 46.763-1.114.896.161 2.256h1.433v-1.951l1.278-1.656v-3.457l-.798-.154zm-10.679-4.518s-1.116.297.153.756c1.278.449 6.382-7.364 6.382-7.364l-4.305 2.7zm-8.678 28.823-.96-.91-1.912-.305-.314.908-2.556-.301-.155-1.207h-1.912l-2.071 1.207h-3.667l-.315-.904-5.9-.611-.954.908-2.392-.6-.315-2.125-1.118-.154-1.273 2.279-4.304-.156c.769.365 7.192 4.199 17.047 5 13.072 1.059 19.283-2.121 19.283-2.121l-.478-.455z"/>
  <path fill="none" d="m22.387 34.102c-.004-.227-.021-.451-.021-.678 0-.714.048-1.423.116-2.12-1.273 1.75-2.274 4.99-2.149 5.815l.328 2.205c-.984.788-1.489 2.852-.492 3.147 1.703.497 3.373 1.068 4.954 1.651-1.5-2.809-2.433-5.824-2.684-8.966-.362-.396-.625-.708-.625-.708z"/>
  <path fill="#fff" d="m63.998 88.139c-22.089 0-40.465-13.186-42.146-33.812-.087 1.014-.144 2.038-.144 3.064 0 22.064 19.106 40.048 42.289 40.048 23.351 0 42.292-17.984 42.292-40.048 0-1.027-.051-2.05-.136-3.064-1.671 20.626-19.901 33.812-42.155 33.812z" opacity=".1"/>
  <path fill="url(#l)" d="m103.132 30.782c0 14.768-17.256 26.743-38.542 26.743-21.283 0-38.542-11.975-38.542-26.743 0-14.769 17.259-26.742 38.542-26.742 21.286.001 38.542 11.974 38.542 26.742z"/>
  <path fill="none" d="m128 128h-128v-128h128z"/>
</svg>
